<?xml version="1.0" encoding="UTF-8"?>
<svg width="579px" height="374px" viewBox="0 0 579 374" version="1.1" xmlns="http://www.w3.org/2000/svg" xmlns:xlink="http://www.w3.org/1999/xlink">
    <!-- Generator: Sketch 51.2 (57519) - http://www.bohemiancoding.com/sketch -->
    <title>Overlay</title>
    <desc>Created with Sketch.</desc>
    <defs>
        <polygon id="path-1" points="0.484603571 0.278333076 7.80284153 0.278333076 7.80284153 4.85131332 0.484603571 4.85131332"></polygon>
        <polygon id="path-3" points="0.484603571 0.278333076 7.80284153 0.278333076 7.80284153 4.85131332 0.484603571 4.85131332"></polygon>
    </defs>
    <g id="Page-1" stroke="none" stroke-width="1" fill="none" fill-rule="evenodd">
        <g id="MyBit-Dropzone-Intro" transform="translate(-15.000000, -19.000000)">
            <g id="Overlay">
                <g id="Page-1" style="mix-blend-mode: overlay;" transform="translate(125.000000, 193.000000) rotate(-85.000000) translate(-125.000000, -193.000000) translate(-59.000000, 84.000000)">
                    <path d="M151.797512,49.48177 L148.991075,52.3941838 L148.986506,52.3941838 C147.78382,51.1533703 146.135901,50.3833191 144.30725,50.3833191 C142.479106,50.3833191 140.831187,51.1533703 139.628501,52.3941838 L139.623932,52.3941838 L136.817495,49.48177 L144.30725,41.7212945 L151.797512,49.48177 Z" id="Fill-1" fill="#658DF5"></path>
                    <path d="M135.818827,157.269685 L133.760681,159.123077 L133.757533,159.123077 C132.875096,158.333416 131.667385,157.843298 130.326416,157.843298 C128.985447,157.843298 127.777211,158.333416 126.895299,159.123077 L126.891626,159.123077 L124.83348,157.269685 L130.326416,152.331238 L135.818827,157.269685 Z" id="Fill-3" fill="#0640D8"></path>
                    <path d="M263.648311,169.8831 L261.590165,171.736491 L261.587017,171.736491 C260.705105,170.94683 259.496869,170.456712 258.1559,170.456712 C256.814931,170.456712 255.606695,170.94683 254.724783,171.736491 L254.72111,171.736491 L252.662964,169.8831 L258.1559,164.944653 L263.648311,169.8831 Z" id="Fill-5" fill="#0640D8"></path>
                    <path d="M184.663866,129.044934 L182.756215,127.045328 L182.756215,127.04227 C183.568994,126.184932 184.073461,125.011572 184.073461,123.708744 C184.073461,122.405917 183.568994,121.232047 182.756215,120.375219 L182.756215,120.371651 L184.663866,118.372045 L189.74689,123.708744 L184.663866,129.044934 Z" id="Fill-7" fill="#0640D8"></path>
                    <path d="M355.523055,132.925985 L355.525752,135.835659 L355.523055,135.83828 C354.243013,135.8409 352.968364,136.309425 351.993633,137.256431 C351.018902,138.203438 350.536661,139.441832 350.533964,140.685466 L350.531267,140.688086 L347.536409,140.685466 L347.536409,132.925985 L355.523055,132.925985 Z" id="Fill-9" fill="#0D38AA"></path>
                    <path d="M1.09006991,215.398311 L0,214.125736 L0,214.123762 C0.46439849,213.578302 0.752747734,212.831441 0.752747734,212.002145 C0.752747734,211.173342 0.46439849,210.426482 0,209.881022 L0,209.878554 L1.09006991,208.606473 L3.99467137,212.002145 L1.09006991,215.398311 Z" id="Fill-11" fill="#0640D8"></path>
                    <path d="M321.388031,171.736491 L323.568381,173.9176 L323.568381,173.921565 C322.639457,174.856467 322.063207,176.136877 322.063207,177.558067 C322.063207,178.979258 322.639457,180.260163 323.568381,181.195065 L323.568381,181.198535 L321.388031,183.379643 L315.579038,177.558067 L321.388031,171.736491 Z" id="Fill-13" fill="#0640D8"></path>
                    <path d="M100.346729,119.342308 L91.8774416,110.609944 L100.346729,101.87758 C102.517677,104.093897 103.861456,107.196948 103.861456,110.609944 C103.861456,114.02294 102.517677,117.12599 100.346729,119.342308" id="Fill-17" fill="#385AB1"></path>
                    <path d="M271.637653,120.816539 L262.649643,129.044934 L253.661632,120.816539 C255.942834,118.707339 259.136729,117.401782 262.649643,117.401782 C266.162557,117.401782 269.356451,118.707339 271.637653,120.816539" id="Fill-19" fill="#0640D8"></path>
                    <path d="M164.780194,8.22839474 L173.768205,0 L182.756215,8.22839474 C180.475013,10.3375948 177.281119,11.643152 173.768205,11.643152 C170.255291,11.643152 167.061396,10.3375948 164.780194,8.22839474" id="Fill-21" fill="#0640D8"></path>
                    <path d="M93.8747773,198.735945 L96.3714469,195.993058 L98.8681165,198.735945 C98.2345709,199.439093 97.3472367,199.874109 96.3714469,199.874109 C95.3956571,199.874109 94.5083228,199.439093 93.8747773,198.735945" id="Fill-23" fill="#0640D8"></path>
                    <path d="M182.756215,84.4128014 L182.756215,80.531801 L186.750835,80.531801 C186.756075,81.5213951 186.36311,82.5191339 185.582419,83.277619 C184.801729,84.0361041 183.775304,84.4178919 182.756215,84.4128014" id="Fill-25" fill="#0C339A"></path>
                    <path d="M20.9720247,152.849098 L24.4673622,149.42045 L27.9626996,152.849098 C27.0755483,153.727873 25.8334396,154.271763 24.4673622,154.271763 C23.1012847,154.271763 21.859176,153.727873 20.9720247,152.849098" id="Fill-27" fill="#0640D8"></path>
                    <path d="M214.180566,199.874109 L217.70959,203.270028 L214.180566,206.665947 C213.276064,205.804029 212.716251,204.59725 212.716251,203.270028 C212.716251,201.942806 213.276064,200.736027 214.180566,199.874109" id="Fill-29" fill="#0640D8"></path>
                    <path d="M213.714918,59.7037641 L217.210256,56.2752345 L220.705593,59.7037641 C219.818403,60.5824184 218.576338,61.1265478 217.210256,61.1265478 C215.844174,61.1265478 214.602108,60.5824184 213.714918,59.7037641" id="Fill-31" fill="#0640D8"></path>
                    <g id="Group-35" transform="translate(359.520424, 212.487523)">
                        <mask id="mask-2" fill="white">
                            <use xlink:href="#path-1"></use>
                        </mask>
                        <g id="Clip-34"></g>
                        <path d="M4.14372255,0.278333076 L7.80284153,3.5101898 C6.87408043,4.33844129 5.5738149,4.85135742 4.14372255,4.85135742 C2.7136302,4.85135742 1.41336467,4.33844129 0.484603571,3.5101898 L4.14372255,0.278333076 Z" id="Fill-33" fill="#0640D8" mask="url(#mask-2)"></path>
                    </g>
                </g>
                <g id="Page-1-Copy" style="mix-blend-mode: overlay;" transform="translate(410.000000, 273.000000) rotate(-120.000000) translate(-410.000000, -273.000000) translate(226.000000, 164.000000)">
                    <path d="M151.797512,49.48177 L148.991075,52.3941838 L148.986506,52.3941838 C147.78382,51.1533703 146.135901,50.3833191 144.30725,50.3833191 C142.479106,50.3833191 140.831187,51.1533703 139.628501,52.3941838 L139.623932,52.3941838 L136.817495,49.48177 L144.30725,41.7212945 L151.797512,49.48177 Z" id="Fill-1" fill="#0444ED"></path>
                    <path d="M135.818827,157.269685 L133.760681,159.123077 L133.757533,159.123077 C132.875096,158.333416 131.667385,157.843298 130.326416,157.843298 C128.985447,157.843298 127.777211,158.333416 126.895299,159.123077 L126.891626,159.123077 L124.83348,157.269685 L130.326416,152.331238 L135.818827,157.269685 Z" id="Fill-3" fill="#0444ED"></path>
                    <path d="M263.648311,169.8831 L261.590165,171.736491 L261.587017,171.736491 C260.705105,170.94683 259.496869,170.456712 258.1559,170.456712 C256.814931,170.456712 255.606695,170.94683 254.724783,171.736491 L254.72111,171.736491 L252.662964,169.8831 L258.1559,164.944653 L263.648311,169.8831 Z" id="Fill-5" fill="#0444ED"></path>
                    <path d="M184.663866,129.044934 L182.756215,127.045328 L182.756215,127.04227 C183.568994,126.184932 184.073461,125.011572 184.073461,123.708744 C184.073461,122.405917 183.568994,121.232047 182.756215,120.375219 L182.756215,120.371651 L184.663866,118.372045 L189.74689,123.708744 L184.663866,129.044934 Z" id="Fill-7" fill="#133DAA"></path>
                    <path d="M355.523055,132.925985 L355.525752,135.835659 L355.523055,135.83828 C354.243013,135.8409 352.968364,136.309425 351.993633,137.256431 C351.018902,138.203438 350.536661,139.441832 350.533964,140.685466 L350.531267,140.688086 L347.536409,140.685466 L347.536409,132.925985 L355.523055,132.925985 Z" id="Fill-9" fill="#1E4ECF"></path>
                    <path d="M1.09006991,215.398311 L0,214.125736 L0,214.123762 C0.46439849,213.578302 0.752747734,212.831441 0.752747734,212.002145 C0.752747734,211.173342 0.46439849,210.426482 0,209.881022 L0,209.878554 L1.09006991,208.606473 L3.99467137,212.002145 L1.09006991,215.398311 Z" id="Fill-11" fill="#0444ED"></path>
                    <path d="M321.388031,171.736491 L323.568381,173.9176 L323.568381,173.921565 C322.639457,174.856467 322.063207,176.136877 322.063207,177.558067 C322.063207,178.979258 322.639457,180.260163 323.568381,181.195065 L323.568381,181.198535 L321.388031,183.379643 L315.579038,177.558067 L321.388031,171.736491 Z" id="Fill-13" fill="#7A9EFF"></path>
                    <path d="M100.346729,119.342308 L91.8774416,110.609944 L100.346729,101.87758 C102.517677,104.093897 103.861456,107.196948 103.861456,110.609944 C103.861456,114.02294 102.517677,117.12599 100.346729,119.342308" id="Fill-17" fill="#0444ED"></path>
                    <path d="M271.637653,120.816539 L262.649643,129.044934 L253.661632,120.816539 C255.942834,118.707339 259.136729,117.401782 262.649643,117.401782 C266.162557,117.401782 269.356451,118.707339 271.637653,120.816539" id="Fill-19" fill="#0444ED"></path>
                    <path d="M164.780194,8.22839474 L173.768205,0 L182.756215,8.22839474 C180.475013,10.3375948 177.281119,11.643152 173.768205,11.643152 C170.255291,11.643152 167.061396,10.3375948 164.780194,8.22839474" id="Fill-21" fill="#0444ED"></path>
                    <path d="M93.8747773,198.735945 L96.3714469,195.993058 L98.8681165,198.735945 C98.2345709,199.439093 97.3472367,199.874109 96.3714469,199.874109 C95.3956571,199.874109 94.5083228,199.439093 93.8747773,198.735945" id="Fill-23" fill="#0444ED"></path>
                    <path d="M182.756215,84.4128014 L182.756215,80.531801 L186.750835,80.531801 C186.756075,81.5213951 186.36311,82.5191339 185.582419,83.277619 C184.801729,84.0361041 183.775304,84.4178919 182.756215,84.4128014" id="Fill-25" fill="#0444ED"></path>
                    <path d="M20.9720247,152.849098 L24.4673622,149.42045 L27.9626996,152.849098 C27.0755483,153.727873 25.8334396,154.271763 24.4673622,154.271763 C23.1012847,154.271763 21.859176,153.727873 20.9720247,152.849098" id="Fill-27" fill="#0444ED"></path>
                    <path d="M214.180566,199.874109 L217.70959,203.270028 L214.180566,206.665947 C213.276064,205.804029 212.716251,204.59725 212.716251,203.270028 C212.716251,201.942806 213.276064,200.736027 214.180566,199.874109" id="Fill-29" fill="#0444ED"></path>
                    <g id="Group-35" transform="translate(359.520424, 212.487523)">
                        <mask id="mask-4" fill="white">
                            <use xlink:href="#path-3"></use>
                        </mask>
                        <g id="Clip-34"></g>
                        <path d="M4.14372255,0.278333076 L7.80284153,3.5101898 C6.87408043,4.33844129 5.5738149,4.85135742 4.14372255,4.85135742 C2.7136302,4.85135742 1.41336467,4.33844129 0.484603571,3.5101898 L4.14372255,0.278333076 Z" id="Fill-33" fill="#0444ED" mask="url(#mask-4)"></path>
                    </g>
                </g>
            </g>
        </g>
    </g>
</svg>