<?xml version="1.0" encoding="UTF-8"?>
<svg width="200px" height="40px" viewBox="0 0 200 40" version="1.1" xmlns="http://www.w3.org/2000/svg" xmlns:xlink="http://www.w3.org/1999/xlink">
    <!-- Generator: Sketch 51.2 (57519) - http://www.bohemiancoding.com/sketch -->
    <title>Company Structure-05</title>
    <desc>Created with Sketch.</desc>
    <defs></defs>
    <g id="Page-1" stroke="none" stroke-width="1" fill="none" fill-rule="evenodd">
        <g id="MyBit-Trust-Intro" transform="translate(-1209.000000, -679.000000)" fill="#FFFFFF" fill-rule="nonzero">
            <g id="Company-Structure-05" transform="translate(1209.000000, 679.000000)">
                <path d="M127.659574,20.1624758 L127.659574,31.098646 L122.444874,31.098646 L122.444874,20.4061896 L122.40619,18.9129594 C122.40619,16.7659574 121.102515,15.1450677 119.11412,14.9864603 C118.677983,14.9512801 118.239071,14.9945162 117.818182,15.1141199 C117.137921,15.2759301 116.526038,15.6482041 116.069632,16.1779497 C115.914132,16.3692438 115.784098,16.5798984 115.682785,16.8046422 C115.439059,17.3570899 115.300017,17.9499863 115.272727,18.5531915 C115.272727,18.7234043 115.249516,18.8897485 115.245648,19.0599613 L115.245648,31.0522244 L110.027079,31.0522244 C110.027079,27.2843327 110.027079,23.5151515 110.027079,19.7446809 C110.027079,19.516441 110.027079,19.2804642 110.027079,19.0444874 C110.027079,18.8781431 110.027079,18.7079304 110,18.5415861 C109.972216,17.9376173 109.83457,17.3437717 109.59381,16.7891683 C109.490934,16.5652588 109.361018,16.354794 109.206963,16.1624758 C108.751404,15.6336211 108.141043,15.26145 107.462282,15.098646 C107.040431,14.9771461 106.599905,14.9338801 106.162476,14.9709865 C104.17795,15.1295938 102.874275,16.7504836 102.870406,18.8974855 L102.831721,20.3907157 L102.831721,31.0560928 L97.6170213,31.0831721 L97.6170213,20.1624758 C97.6170213,19.6402321 97.6170213,19.1141199 97.6518375,18.5918762 C97.6518375,18.4758221 97.6518375,18.3636364 97.6711799,18.2475822 C97.8646035,15.384913 98.9980658,12.9400387 101.508704,11.4468085 C103.755311,10.1169825 106.451385,9.77402395 108.959381,10.4990329 C110.50677,10.9825919 111.531915,11.9148936 112.588008,13.1102515 L112.646035,13.1760155 L112.700193,13.1102515 C113.760155,11.9148936 114.777563,10.9825919 116.332689,10.4990329 C118.843135,9.77272202 121.542103,10.1156926 123.791103,11.4468085 C126.294004,12.9439072 127.435203,15.384913 127.628627,18.2475822 C127.628627,18.3636364 127.628627,18.4758221 127.628627,18.5918762 C127.628627,19.1179884 127.659574,19.6324952 127.659574,20.1624758 Z" id="Shape"></path>
                <path d="M195.357834,15.9729207 L195.357834,24.4332689 C195.357834,26.6305609 196.943907,26.6692456 199.953578,26.5067698 L199.953578,31.2611219 C192.758221,32.073501 190.108317,30.0077369 190.108317,24.4294004 L190.108317,15.9729207 L186.572534,15.9729207 L186.572534,10.9439072 L190.112186,10.9439072 L190.112186,8.45261122 L195.357834,3.19535783 L195.357834,10.9323017 L199.953578,10.9323017 L199.953578,15.9613153 L195.357834,15.9729207 Z" id="Shape"></path>
                <path d="M144.889749,10.9090909 L140.390716,24.5338491 L135.125725,10.9090909 L129.411992,10.9090909 L137.717602,30.5261122 C136.742747,33.2843327 135.210832,34.4564797 132.40619,34.417795 L132.40619,39.2804642 C137.597679,39.5589942 140.998066,37.0058027 143.102515,31.1566731 L150.483559,10.9090909 L144.889749,10.9090909 Z" id="Shape"></path>
                <rect id="Rectangle-path" x="178.336557" y="10.9090909" width="5.22630561" height="20.2630561"></rect>
                <path d="M171.717602,13.4622824 C169.953331,11.4586881 167.404533,10.3219667 164.73501,10.3481625 C161.903288,10.3481625 159.705996,11.3191489 158.158607,13.303675 L158.158607,2.79690522 L158.011605,2.79690522 L152.928433,7.88007737 L152.928433,31.1837524 L158.154739,31.1837524 L158.154739,28.7891683 C159.702128,30.7736944 161.883946,31.7446809 164.731141,31.7446809 C167.397383,31.7747312 169.945273,30.6454727 171.713733,28.6499033 C175.603717,24.3286966 175.603717,17.7680152 171.713733,13.4468085 L171.717602,13.4622824 Z M167.791103,25.172147 C165.53282,27.2820046 162.026175,27.2820046 159.767892,25.172147 C158.706708,24.063553 158.136447,22.5744595 158.185687,21.040619 C158.127087,19.5155406 158.699399,18.0336875 159.767892,16.9439072 C162.011506,14.7971835 165.547489,14.7971835 167.791103,16.9439072 C168.883262,18.0201048 169.468061,19.5088118 169.400387,21.040619 C169.458757,22.5811458 168.87611,24.0769806 167.791103,25.172147 Z" id="Shape"></path>
                <rect id="Rectangle-path" transform="translate(180.923379, 4.584507) rotate(-44.930000) translate(-180.923379, -4.584507) " x="178.203844" y="1.86110305" width="5.43907157" height="5.44680851"></rect>
                <path d="M1.86847195,27.2147002 L1.86847195,31.1644101 L0,31.1644101 L0,20.5145068 L4.09284333,20.5145068 C5.11953172,20.4598091 6.12957091,20.7909695 6.9245648,21.44294 C7.62165466,22.0607097 8.00734796,22.9568794 7.97678917,23.8878143 C8.02658206,24.8151683 7.64711788,25.7138992 6.94777563,26.3249516 C6.2617666,26.9078014 5.30238556,27.1992263 4.0696325,27.1992263 L1.86847195,27.2147002 Z M1.86847195,25.72147 L4.09284333,25.72147 C4.63475488,25.7594686 5.1713508,25.5939377 5.59767892,25.2572534 C5.96041209,24.908431 6.15019585,24.416976 6.11605416,23.9148936 C6.14203685,23.4022943 5.95107716,22.9024292 5.58994197,22.5377176 C5.19690037,22.1764073 4.67656168,21.985802 4.14313346,22.0077369 L1.86847195,22.0077369 L1.86847195,25.72147 Z" id="Shape"></path>
                <path d="M18.0928433,26.1160542 C18.1126295,27.0599474 17.9278705,27.9969393 17.5512573,28.8626692 C17.2261759,29.6071224 16.6876929,30.2384937 16.0038685,30.6769826 C14.5791181,31.5232531 12.8057948,31.5232531 11.3810445,30.6769826 C10.6928656,30.2432513 10.1478887,29.6161914 9.81431335,28.8742747 C9.43121236,28.0237533 9.24098196,27.0990222 9.25725338,26.1663443 L9.25725338,25.5667311 C9.23810604,24.6208599 9.42557371,23.6822014 9.8065764,22.8162476 C10.132936,22.0705463 10.670964,21.4370183 11.3539652,20.9941973 C12.7774675,20.1534922 14.5455499,20.1534922 15.9690522,20.9941973 C16.6514644,21.4275057 17.1899819,22.0535322 17.516441,22.7930368 C17.8962967,23.6527882 18.0863012,24.5843381 18.073501,25.5241779 L18.0928433,26.1160542 Z M16.2475822,25.5589942 C16.2475822,24.3984526 16.0270793,23.4777563 15.5783366,22.8510638 C15.1325547,22.258375 14.4340773,21.909732 13.6924565,21.909732 C12.9508356,21.909732 12.2523583,22.258375 11.8065764,22.8510638 C11.3067817,23.6441508 11.0648806,24.5725646 11.1141199,25.5087041 L11.1141199,26.1237911 C11.0589511,27.0753236 11.2980155,28.0207757 11.7988395,28.8317215 C12.2247266,29.4545532 12.940394,29.815308 13.6943907,29.787234 C14.4444513,29.823473 15.1599459,29.4693836 15.5860735,28.8510638 C16.0270793,28.2295293 16.2475822,27.3178594 16.2475822,26.1160542 L16.2475822,25.5589942 Z" id="Shape"></path>
                <polygon id="Shape" points="28.2862669 28.5299807 29.926499 20.5145068 31.7601547 20.5145068 29.303675 31.1644101 27.5357834 31.1644101 25.5087041 23.3887814 23.4390716 31.1644101 21.6634429 31.1644101 19.2069632 20.5145068 21.0444874 20.5145068 22.6924565 28.5299807 24.7234043 20.5299807 26.270793 20.5299807"></polygon>
                <polygon id="Shape" points="39.3384913 26.410058 34.967118 26.410058 34.967118 29.6905222 40.0773694 29.6905222 40.0773694 31.1682785 33.1141199 31.1682785 33.1141199 20.5145068 40.0270793 20.5145068 40.0270793 22.0077369 34.967118 22.0077369 34.967118 24.9477756 39.3384913 24.9477756"></polygon>
                <path d="M45.4970986,27.0676983 L43.4352031,27.0676983 L43.4352031,31.1644101 L41.5860735,31.1644101 L41.5860735,20.5145068 L45.3307544,20.5145068 C46.55706,20.5145068 47.5087041,20.7891683 48.1740812,21.3423598 C48.8637684,21.9385708 49.2345487,22.8232898 49.1760155,23.7330754 C49.1996724,24.3696719 49.019414,24.9971879 48.6615087,25.5241779 C48.2952096,26.0216795 47.7966026,26.4063574 47.2224371,26.6344294 L49.6170213,31.0676983 L49.6170213,31.1644101 L47.6324952,31.1644101 L45.4970986,27.0676983 Z M43.4352031,25.5744681 L45.3384913,25.5744681 C45.8679815,25.607081 46.3902545,25.4385167 46.8007737,25.1025145 C47.159075,24.7727797 47.3519157,24.3006038 47.3268859,23.8143133 C47.357434,23.3232696 47.1806143,22.8419269 46.8394584,22.4874275 C46.4347827,22.1483534 45.9158236,21.976751 45.3887814,22.0077369 L43.4352031,22.0077369 L43.4352031,25.5744681 Z" id="Shape"></path>
                <polygon id="Shape" points="57.1566731 26.410058 52.7814313 26.410058 52.7814313 29.6905222 57.8955513 29.6905222 57.8955513 31.1682785 50.9323017 31.1682785 50.9323017 20.5145068 57.8452611 20.5145068 57.8452611 22.0077369 52.7814313 22.0077369 52.7814313 24.9477756 57.1566731 24.9477756"></polygon>
                <path d="M59.4042553,31.1644101 L59.4042553,20.5145068 L62.549323,20.5145068 C63.4244298,20.4978065 64.2882407,20.7140929 65.0522244,21.1411992 C65.7794106,21.5587258 66.3684376,22.1800283 66.7466151,22.9284333 C67.1574831,23.7489922 67.3632337,24.6569495 67.3462282,25.5744681 L67.3462282,26.1083172 C67.3659714,27.0327497 67.1587621,27.9479243 66.7427466,28.7736944 C66.3571619,29.5195366 65.7595524,30.1346437 65.0251451,30.5415861 C64.2405639,30.9657121 63.359825,31.180234 62.4680851,31.1644101 L59.4042553,31.1644101 Z M61.2533849,22.0077369 L61.2533849,29.6905222 L62.4603482,29.6905222 C63.3057129,29.7419776 64.1285648,29.4060035 64.696325,28.7775629 C65.2147002,28.1740812 65.4700193,27.2998066 65.4700193,26.1624758 L65.4700193,25.5705996 C65.4700193,24.410058 65.2185687,23.5319149 64.7156673,22.9245648 C64.1697782,22.2954453 63.3611723,21.9576913 62.5299807,22.0116054 L61.2533849,22.0077369 Z" id="Shape"></path>
                <path d="M72.9206963,31.1644101 L72.9206963,20.5145068 L76.5686654,20.5145068 C77.7756286,20.5145068 78.6924565,20.7556415 79.3191489,21.237911 C79.9673347,21.7601894 80.3197097,22.5660306 80.2630561,23.3965184 C80.2709485,23.8640951 80.1359911,24.32295 79.8762089,24.7117988 C79.5868298,25.122031 79.1832582,25.4381621 78.7156673,25.6208897 C79.2496367,25.7483114 79.7219551,26.0590832 80.0502901,26.4990329 C80.3709251,26.9501605 80.5365343,27.4931417 80.5222437,28.0464217 C80.5800054,28.9270796 80.2255502,29.7846325 79.5628627,30.3675048 C78.9206963,30.901354 78.0154739,31.172147 76.8085106,31.172147 L72.9206963,31.1644101 Z M74.7698259,24.9980658 L76.5957447,24.9980658 C77.0767625,25.0272025 77.5532455,24.8906744 77.9458414,24.6112186 C78.27522,24.3393956 78.4560899,23.9274143 78.4332689,23.5009671 C78.4792131,23.0636535 78.3105428,22.6311656 77.9806576,22.3404255 C77.5639094,22.0757193 77.0724584,21.9535353 76.5802708,21.9922631 L74.7814313,21.9922631 L74.7698259,24.9980658 Z M74.7698259,26.3597679 L74.7698259,29.6905222 L76.8239845,29.6905222 C77.3160318,29.7209478 77.8016913,29.5664197 78.1856867,29.2572534 C78.5224778,28.9524461 78.7031167,28.5115166 78.6769826,28.0580271 C78.6769826,26.9516441 78.1108962,26.3868472 76.9787234,26.3636364 L74.7698259,26.3597679 Z" id="Shape"></path>
                <polygon id="Shape" points="85.44294 25.5589942 87.8916828 20.5299807 89.9419729 20.5299807 86.3713733 27.2572534 86.3713733 31.1798839 84.5145068 31.1798839 84.5145068 27.2417795 80.9361702 20.5145068 82.9903288 20.5145068"></polygon>
            </g>
        </g>
    </g>
</svg>